<svg width="24" height="24" viewBox="0 0 24 24" fill="none" xmlns="http://www.w3.org/2000/svg">
<g clip-path="url(#clip0_50_373)">
<path d="M23.9625 18.1404L22.8727 22.8654C22.7196 23.5334 22.1325 24.0007 21.4448 24.0007C9.61875 23.9998 0 14.381 0 2.55448C0 1.86729 0.467297 1.27948 1.13531 1.12713L5.86031 0.0372876C6.54844 -0.122181 7.25156 0.235006 7.5375 0.886663L9.71813 5.9726C9.97303 6.57166 9.80109 7.26963 9.29719 7.68119L6.77344 9.7076C8.36625 12.9523 11.0044 15.5904 14.25 17.1842L16.3162 14.6623C16.7235 14.157 17.4267 13.9821 18.0258 14.2416L23.1117 16.4217C23.7234 16.7435 24.1219 17.456 23.9625 18.1404Z" fill="white"/>
</g>
<defs>
<clipPath id="clip0_50_373">
<rect width="24" height="24" fill="white"/>
</clipPath>
</defs>
</svg>
